<svg width="20" height="21" viewBox="0 0 20 21" fill="none" xmlns="http://www.w3.org/2000/svg">
<path d="M8.83333 14L14.7083 8.125L13.5417 6.95833L8.83333 11.6667L6.45833 9.29167L5.29167 10.4583L8.83333 14ZM4.16667 18C3.70833 18 3.31611 17.8369 2.99 17.5108C2.66389 17.1847 2.50056 16.7922 2.5 16.3333V4.66667C2.5 4.20833 2.66333 3.81611 2.99 3.49C3.31667 3.16389 3.70889 3.00056 4.16667 3H15.8333C16.2917 3 16.6842 3.16333 17.0108 3.49C17.3375 3.81667 17.5006 4.20889 17.5 4.66667V16.3333C17.5 16.7917 17.3369 17.1842 17.0108 17.5108C16.6847 17.8375 16.2922 18.0006 15.8333 18H4.16667Z" fill="#FFA41B"/>
</svg>
